<?xml version="1.0" encoding="UTF-8"?>
<!-- Generator: visioncortex VTracer 0.6.12 -->
<svg version="1.1" xmlns="http://www.w3.org/2000/svg" viewBox="0 0 512 367" width="512" height="367">
<path d="M0 0 C1.197 1.162 2.388 2.33 3.555 3.523 C4.954 4.953 6.383 6.352 7.812 7.75 C10.662 11.984 10.495 15.052 10 20 C13.118 21.603 14.39 22.19 17.812 21.125 C18.534 20.754 19.256 20.382 20 20 C19.959 18.948 19.918 17.896 19.875 16.812 C21 13 21 13 23.188 11.387 C25.779 10.05 28.211 8.855 31 8 C31.99 8.33 32.98 8.66 34 9 C32.845 12.795 32.845 12.795 27 32 C9.84 32 -7.32 32 -25 32 C-31 13 -31 13 -31 8 C-19.702 11.698 -19.702 11.698 -17.98 14.891 C-17.75 16.812 -17.75 16.812 -18 20 C-14.218 21.837 -12.054 22.158 -8 21 C-8 19.907 -8 18.814 -8 17.688 C-8 11.835 -7.559 10.039 -4 5.312 C-3.257 4.319 -2.515 3.325 -1.75 2.301 C-1.461 1.921 -1.461 1.921 0 0 Z " fill="#ffffff" transform="translate(248,45)"/>
<path d="M0 0 C16.5 0 33 0 50 0 C49.67 1.32 49.34 2.64 49 4 C32.83 4 16.66 4 0 4 C0 2.68 0 1.36 0 0 Z " fill="#ffffff" transform="translate(224,79)"/>
<path d="M0 0 C12.312 7.835 12.312 7.835 17.5 11.938 C18.588 12.79 19.676 13.642 20.766 14.492 C21.033 14.701 21.033 14.701 22.385 15.757 C25.847 18.422 29.405 20.955 32.953 23.504 C35 25 35 25 36 26 C36.116 28.493 36.168 30.959 36.177 33.454 C36.184 34.234 36.19 35.015 36.197 35.819 C36.217 38.415 36.228 41.01 36.238 43.605 C36.242 44.491 36.246 45.376 36.251 46.288 C36.272 50.976 36.286 55.664 36.295 60.353 C36.306 65.194 36.341 70.035 36.38 74.876 C36.407 78.598 36.415 82.32 36.418 86.043 C36.423 87.827 36.435 89.611 36.453 91.395 C36.478 93.897 36.477 96.397 36.47 98.899 C36.483 99.633 36.496 100.368 36.509 101.124 C36.457 106.218 35.169 109.059 32 113 C29.932 114.884 29.932 114.884 27.727 116.48 C26.908 117.082 26.089 117.684 25.245 118.304 C24.381 118.926 23.516 119.547 22.625 120.188 C20.828 121.504 19.033 122.822 17.238 124.141 C16.354 124.788 15.469 125.436 14.557 126.104 C10.31 129.253 6.175 132.542 2.051 135.85 C-1.9 139 -1.9 139 -3 139 C-4.12 133.291 -5.008 127.595 -3 122 C1.261 116.655 7.205 113.017 12.904 109.361 C19.442 105.116 19.442 105.116 21 102 C21.121 99.754 21.178 97.504 21.205 95.255 C21.215 94.563 21.225 93.87 21.235 93.156 C21.267 90.862 21.292 88.568 21.316 86.273 C21.337 84.684 21.358 83.095 21.379 81.507 C21.435 77.321 21.484 73.135 21.532 68.95 C21.582 64.68 21.638 60.41 21.693 56.141 C21.801 47.76 21.902 39.38 22 31 C21.216 30.711 20.433 30.422 19.625 30.125 C17 29 17 29 15 27 C14.996 27.938 14.992 28.876 14.988 29.842 C14.96 33.343 14.911 36.842 14.847 40.342 C14.824 41.853 14.81 43.364 14.804 44.875 C14.795 47.056 14.754 49.234 14.707 51.414 C14.699 52.069 14.699 52.069 14.659 55.381 C13.603 61.181 10.094 64.504 5.363 67.93 C4.708 68.41 4.052 68.89 3.377 69.385 C3.037 69.631 3.037 69.631 1.312 70.875 C0.609 71.405 -0.095 71.934 -0.821 72.48 C-3.896 74.791 -6.907 76.946 -10.234 78.887 C-13.253 80.758 -15.034 82.022 -17 85 C-18.427 91.233 -18.218 97.649 -18 104 C-14.04 104 -10.08 104 -6 104 C-6 107.3 -6 110.6 -6 114 C-7.815 114.165 -7.815 114.165 -17 115 C-15.68 115.33 -14.36 115.66 -13 116 C-13 118.31 -13 120.62 -13 123 C-14.65 123 -16.3 123 -18 123 C-18 123.66 -18 124.32 -18 125 C-14.37 125 -10.74 125 -7 125 C-7 128.63 -7 132.26 -7 136 C-10.63 136 -14.26 136 -18 136 C-17.861 136.906 -17.722 137.812 -17.578 138.746 C-17.219 142.788 -17.15 146.02 -18 150 C-21.532 153.93 -25.338 156.472 -30 159 C-30.33 159 -30.66 159 -31 159 C-31.116 148.673 -31.205 138.346 -31.259 128.019 C-31.285 123.223 -31.32 118.428 -31.377 113.632 C-31.432 109.003 -31.461 104.374 -31.474 99.744 C-31.484 97.979 -31.502 96.215 -31.529 94.45 C-31.565 91.974 -31.57 89.501 -31.568 87.025 C-31.586 86.298 -31.604 85.572 -31.622 84.823 C-31.565 79.121 -29.857 76.885 -26 73 C-23.983 71.221 -23.983 71.221 -22.039 69.781 C-21.32 69.241 -20.6 68.701 -19.859 68.145 C-19.491 67.873 -19.491 67.873 -17.625 66.5 C-16.157 65.408 -14.691 64.315 -13.227 63.219 C-12.519 62.69 -11.812 62.162 -11.083 61.617 C-8.424 59.553 -5.914 57.346 -3.423 55.084 C-2 54 -2 54 0 54 C0 36.18 0 18.36 0 0 Z " fill="#ffffff" transform="translate(282,80)"/>
<path d="M0 0 C0 15.84 0 31.68 0 48 C-11.576 41.385 -11.576 41.385 -14 38 C-14.859 34.316 -15.047 30.775 -15 27 C-20.725 31.174 -20.725 31.174 -21.812 34.438 C-19.749 40.946 -10.71 45.507 -5.375 49.375 C1.92 54.712 9.171 60.103 16.375 65.562 C17.26 66.229 18.145 66.895 19.057 67.582 C31.132 76.761 31.132 76.761 32 82 C32.089 84.487 32.126 86.944 32.114 89.431 C32.114 90.173 32.114 90.914 32.114 91.679 C32.113 94.124 32.105 96.57 32.098 99.016 C32.096 100.714 32.094 102.412 32.093 104.11 C32.09 108.575 32.08 113.04 32.069 117.505 C32.058 122.063 32.054 126.622 32.049 131.18 C32.038 140.12 32.021 149.06 32 158 C27.168 158 24.162 155.53 20.383 152.685 C16.646 148.474 16.931 144.896 17.14 139.441 C17.191 138.774 17.241 138.107 17.294 137.42 C17.449 135.296 17.523 133.183 17.576 131.054 C17.739 125.018 18.027 118.992 18.407 112.966 C19.888 88.438 19.888 88.438 15.175 81.195 C10.444 76.247 4.869 72.905 -1.105 69.646 C-5.788 66.983 -10.007 63.726 -14.312 60.5 C-15.806 59.423 -17.301 58.349 -18.801 57.281 C-19.857 56.528 -20.912 55.776 -22 55 C-22.188 61.653 -22.272 68.303 -22.287 74.958 C-22.304 77.219 -22.344 79.479 -22.408 81.738 C-22.945 101.534 -22.945 101.534 -18.307 106.557 C-15.15 109.251 -11.676 111.098 -8 113 C-6.472 114.084 -4.962 115.196 -3.484 116.348 C-2.241 117.254 -0.996 118.159 0.25 119.062 C6.88 123.88 6.88 123.88 8 125 C8.073 127.697 8.092 130.367 8.062 133.062 C8.058 133.821 8.053 134.58 8.049 135.361 C8.037 137.241 8.019 139.12 8 141 C4.341 139.342 1.176 137.096 -2.062 134.75 C-2.657 134.322 -3.251 133.894 -3.863 133.452 C-5.912 131.972 -7.956 130.486 -10 129 C-10.802 128.42 -11.604 127.84 -12.43 127.242 C-14.978 125.396 -17.521 123.543 -20.062 121.688 C-20.871 121.101 -21.68 120.515 -22.514 119.911 C-33.852 111.594 -33.852 111.594 -36 106 C-36.225 103.44 -36.345 100.983 -36.37 98.421 C-36.385 97.663 -36.399 96.904 -36.415 96.123 C-36.459 93.619 -36.487 91.114 -36.512 88.609 C-36.521 87.751 -36.531 86.894 -36.54 86.01 C-36.588 81.468 -36.621 76.927 -36.645 72.385 C-36.673 67.706 -36.752 63.029 -36.843 58.351 C-36.903 54.742 -36.923 51.135 -36.932 47.526 C-36.943 45.802 -36.97 44.078 -37.013 42.354 C-37.325 28.923 -37.325 28.923 -34.1 24.243 C-31.838 22.197 -29.601 20.583 -27 19 C-26.124 18.302 -25.248 17.605 -24.345 16.886 C-23.641 16.373 -22.937 15.86 -22.211 15.332 C-21.414 14.749 -20.618 14.165 -19.797 13.564 C-18.998 12.986 -18.198 12.408 -17.375 11.812 C-16.568 11.223 -15.761 10.633 -14.93 10.025 C-12.625 8.343 -10.313 6.671 -8 5 C-7.652 4.746 -7.652 4.746 -5.892 3.462 C-1.115 0 -1.115 0 0 0 Z " fill="#ffffff" transform="translate(216,80)"/>
<path d="M0 0 C2.937 2.418 4.824 4.951 5.461 8.758 C6.356 11.442 7.536 11.883 10 13.188 C14.903 16.073 16.563 18.581 18 24.125 C18.195 29.77 16.354 33.255 12.812 37.562 C9.867 39.96 7.839 40.992 4.125 41.75 C2.118 41.46 0.116 41.132 -1.875 40.75 C-1.844 41.36 -1.812 41.97 -1.78 42.598 C-1.655 45.378 -1.577 48.156 -1.5 50.938 C-1.45 51.897 -1.399 52.857 -1.348 53.846 C-1.202 60.865 -1.202 60.865 -3.237 63.542 C-4.898 64.926 -4.898 64.926 -7.875 66.75 C-10.844 65.372 -13.457 63.972 -15.875 61.75 C-16.329 59.482 -16.329 59.482 -16.266 56.863 C-16.259 56.394 -16.259 56.394 -16.227 54.021 C-16.193 53.045 -16.16 52.069 -16.125 51.062 C-16.107 50.074 -16.089 49.086 -16.07 48.068 C-16.023 45.628 -15.957 43.189 -15.875 40.75 C-16.486 40.77 -17.096 40.791 -17.725 40.812 C-18.128 40.819 -18.128 40.819 -20.164 40.859 C-20.562 40.87 -20.562 40.87 -22.577 40.921 C-27.065 40.587 -29.831 37.938 -32.688 34.688 C-35.182 30.618 -35.51 26.401 -34.875 21.75 C-32.611 17.39 -29.923 14.52 -25.875 11.75 C-25.215 11.75 -24.555 11.75 -23.875 11.75 C-23.728 11.147 -23.581 10.543 -23.43 9.922 C-22.196 5.525 -21.473 3.249 -17.875 0.25 C-11.709 -2.833 -6.327 -2.751 0 0 Z M-13.875 9.75 C-14.125 12.25 -14.125 12.25 -13.875 14.75 C-11.875 16.75 -11.875 16.75 -8.75 16.875 C-7.801 16.834 -6.852 16.793 -5.875 16.75 C-5.215 14.77 -4.555 12.79 -3.875 10.75 C-5.686 8.462 -6.482 7.798 -9.438 7.438 C-11.875 7.75 -11.875 7.75 -13.875 9.75 Z M-24.812 22.438 C-26.165 25.381 -25.986 26.735 -24.875 29.75 C-21.875 31.75 -21.875 31.75 -19.312 31.5 C-16.875 30.75 -16.875 30.75 -14.875 28.75 C-14.625 25.75 -14.625 25.75 -14.875 22.75 C-16.875 20.75 -16.875 20.75 -19.812 20.375 C-22.875 20.75 -22.875 20.75 -24.812 22.438 Z M-1.625 21.938 C-3.333 24.414 -3.391 25.804 -2.875 28.75 C-1.188 30.625 -1.188 30.625 1.125 31.75 C3.812 31.562 3.812 31.562 6.125 30.75 C7.519 27.961 7.382 25.829 7.125 22.75 C3.924 20.616 1.802 19.612 -1.625 21.938 Z " fill="#ffffff" transform="translate(257.875,87.25)"/>
<path d="M0 0 C0.514 -0.013 0.514 -0.013 3.117 -0.078 C6.5 0.291 8.364 1.314 11.125 3.25 C10.135 5.23 9.145 7.21 8.125 9.25 C7.094 8.899 6.062 8.549 5 8.188 C1.145 7.255 -1.077 7.324 -4.875 8.25 C-4.545 9.24 -4.215 10.23 -3.875 11.25 C-0.918 12.427 2.082 13.228 5.145 14.09 C8.377 15.348 9.945 16.582 12.125 19.25 C13.125 22.125 13.125 22.125 13.125 25.25 C11.479 28.542 10.103 30.617 7 32.625 C-0.625 34.283 -6.805 33.392 -13.875 30.25 C-13.545 29.095 -13.545 29.095 -11.875 23.25 C-11.091 23.58 -10.308 23.91 -9.5 24.25 C-4.881 25.524 -0.633 25.419 4.125 25.25 C4.125 24.26 4.125 23.27 4.125 22.25 C3.233 22.008 2.341 21.765 1.422 21.516 C0.837 21.348 0.837 21.348 -2.125 20.5 C-3.285 20.175 -4.445 19.85 -5.641 19.516 C-9.021 18.193 -10.684 17.117 -12.875 14.25 C-13.481 9.476 -13.591 7.41 -11.062 3.312 C-7.608 0.056 -4.572 0.068 0 0 Z " fill="#ffffff" transform="translate(127.875,256.75)"/>
<path d="M0 0 C5.194 2.727 7.976 6.866 9.793 12.316 C10.375 18.249 9.21 22.51 5.793 27.316 C0.716 31.357 -3.433 32.681 -9.793 32.598 C-15.123 31.977 -18.996 29.59 -22.645 25.754 C-25.637 21.085 -25.705 16.698 -25.207 11.316 C-21.397 0.311 -10.77 -3.336 0 0 Z M-14.707 7.816 C-16.77 11.255 -17.422 14.312 -17.207 18.316 C-15.633 21.937 -14.518 23.109 -11.207 25.316 C-6.922 25.872 -4.91 25.78 -1.27 23.379 C1.508 19.255 1.702 16.15 0.793 11.316 C-0.645 8.254 -0.645 8.254 -3.207 6.316 C-7.488 5.437 -10.932 5.552 -14.707 7.816 Z " fill="#ffffff" transform="translate(168.20703125,257.68359375)"/>
<path d="M0 0 C2.64 0 5.28 0 8 0 C10.64 6.27 13.28 12.54 16 19 C18.845 16.155 19.735 12.654 21.062 8.938 C23.88 1.12 23.88 1.12 25 0 C27.671 -0.141 30.324 -0.042 33 0 C32.414 4.452 31.27 8.155 29.496 12.273 C29.003 13.427 28.51 14.581 28.002 15.77 C27.486 16.959 26.969 18.149 26.438 19.375 C25.917 20.588 25.397 21.801 24.861 23.051 C23.58 26.036 22.293 29.019 21 32 C18.03 32 15.06 32 12 32 C10.282 28.09 8.573 24.175 6.873 20.257 C6.294 18.925 5.712 17.594 5.127 16.265 C4.286 14.351 3.455 12.434 2.625 10.516 C2.122 9.364 1.62 8.211 1.102 7.024 C0 4 0 4 0 0 Z " fill="#ffffff" transform="translate(178,257)"/>
<path d="M0 0 C7.92 0 15.84 0 24 0 C24 2.31 24 4.62 24 7 C21.36 7.165 21.36 7.165 8 8 C8 9.32 8 10.64 8 12 C12.95 12.33 17.9 12.66 23 13 C23 14.98 23 16.96 23 19 C17.72 19 12.44 19 7 19 C7.33 20.98 7.66 22.96 8 25 C13.61 25.33 19.22 25.66 25 26 C25 27.98 25 29.96 25 32 C16.75 32 8.5 32 0 32 C0 21.44 0 10.88 0 0 Z " fill="#ffffff" transform="translate(214,257)"/>
<path d="M0 0 C2.846 -0.062 5.692 -0.124 8.625 -0.188 C9.51 -0.215 10.395 -0.242 11.307 -0.27 C16.296 -0.322 19.683 0.222 24 3 C26.408 5.889 26.961 7.695 27.438 11.438 C26.925 15.607 25.35 17.589 23 21 C23 24.917 26.047 28.725 28 32 C24.901 32.425 22.081 32.614 19 32 C17.362 30.336 16.359 28.642 15.195 26.625 C14 25 14 25 10.688 24.062 C9.801 24.042 8.914 24.021 8 24 C8 26.64 8 29.28 8 32 C5.36 32 2.72 32 0 32 C0 21.44 0 10.88 0 0 Z M8 7 C8 10.3 8 13.6 8 17 C8.722 16.948 8.722 16.948 12.375 16.688 C13.187 16.629 13.999 16.571 14.836 16.512 C17 16 17 16 19 13 C18.459 8.459 18.459 8.459 17 7 C13.997 6.858 11.008 6.958 8 7 Z " fill="#ffffff" transform="translate(244,257)"/>
<path d="M0 0 C7.92 0 15.84 0 24 0 C24 2.31 24 4.62 24 7 C18.72 7 13.44 7 8 7 C8 8.98 8 10.96 8 13 C12.95 13 17.9 13 23 13 C23 14.98 23 16.96 23 19 C18.05 19 13.1 19 8 19 C8 21.31 8 23.62 8 26 C13.61 26 19.22 26 25 26 C25 27.98 25 29.96 25 32 C16.75 32 8.5 32 0 32 C0 21.44 0 10.88 0 0 Z " fill="#ffffff" transform="translate(276,257)"/>
<path d="M0 0 C2.64 0 5.28 0 8 0 C8 10.56 8 21.12 8 32 C5.36 32 2.72 32 0 32 C0 21.44 0 10.88 0 0 Z " fill="#ffffff" transform="translate(305,257)"/>
<path d="M0 0 C2.312 1.688 2.312 1.688 3.312 4.688 C1.332 6.007 -0.647 7.327 -2.688 8.688 C-3.678 8.027 -4.668 7.368 -5.688 6.688 C-7.844 6.387 -7.844 6.387 -10.188 6.375 C-10.961 6.358 -11.734 6.341 -12.531 6.324 C-15.223 6.778 -16.059 7.529 -17.688 9.688 C-18.786 13.845 -18.945 16.026 -17.375 20.062 C-15.688 22.688 -15.688 22.688 -13.688 23.688 C-12.314 23.756 -10.937 23.772 -9.562 23.75 C-8.923 23.74 -8.923 23.74 -5.688 23.688 C-5.358 20.387 -5.027 17.087 -4.688 13.688 C-2.048 13.688 0.592 13.688 3.312 13.688 C3.312 18.308 3.312 22.928 3.312 27.688 C-2.85 31.339 -7.529 32.635 -14.688 31.688 C-20.577 29.95 -23.241 27.553 -26.688 22.688 C-28.138 18.337 -28.198 14.234 -27.688 9.688 C-22.166 -1.355 -11.224 -3.995 0 0 Z " fill="#ffffff" transform="translate(345.6875,258.3125)"/>
<path d="M0 0 C7 0 7 0 9.004 1.469 C9.518 2.139 10.033 2.809 10.562 3.5 C11.132 4.222 11.702 4.944 12.289 5.688 C12.854 6.451 13.418 7.214 14 8 C14.585 8.763 15.17 9.526 15.773 10.312 C17.203 12.192 18.605 14.094 20 16 C20.33 10.72 20.66 5.44 21 0 C23.64 0 26.28 0 29 0 C29 10.56 29 21.12 29 32 C21 32 21 32 18.99 30.531 C18.529 29.861 18.069 29.191 17.594 28.5 C17.078 27.778 16.562 27.056 16.031 26.312 C15.526 25.549 15.021 24.786 14.5 24 C13.964 23.237 13.428 22.474 12.875 21.688 C11.559 19.808 10.276 17.906 9 16 C8.67 21.28 8.34 26.56 8 32 C5.36 32 2.72 32 0 32 C0 21.44 0 10.88 0 0 Z " fill="#ffffff" transform="translate(354,257)"/>
<path d="M0 0 C1.134 0.021 2.269 0.041 3.438 0.062 C14.438 23.499 14.438 23.499 14.438 27.062 C12.127 27.062 9.817 27.062 7.438 27.062 C7.234 26.418 7.03 25.773 6.82 25.109 C5.438 23.062 5.438 23.062 2.617 22.453 C1.527 22.407 0.436 22.36 -0.688 22.312 C-1.783 22.256 -2.879 22.199 -4.008 22.141 C-4.851 22.115 -5.694 22.089 -6.562 22.062 C-6.893 23.712 -7.222 25.363 -7.562 27.062 C-9.873 27.062 -12.183 27.062 -14.562 27.062 C-12.935 20.613 -10.605 14.577 -7.938 8.5 C-7.624 7.785 -7.311 7.07 -6.988 6.334 C-4.2 0.074 -4.2 0.074 0 0 Z M-0.562 8.062 C-3.562 13.812 -3.562 13.812 -3.562 16.062 C-1.252 16.062 1.058 16.062 3.438 16.062 C2.447 13.423 1.458 10.783 0.438 8.062 C0.107 8.062 -0.222 8.062 -0.562 8.062 Z " fill="#ffffff" transform="translate(161.5625,300.9375)"/>
<path d="M0 0 C2.516 -0.062 5.032 -0.124 7.625 -0.188 C8.015 -0.201 8.015 -0.201 9.991 -0.27 C15.887 -0.34 19.933 1.045 24.312 5.188 C26.48 8.8 27.207 11.795 27 16 C25.365 20.724 23.119 23.22 19 26 C15.235 27.255 11.728 27.107 7.812 27.062 C5.234 27.042 2.656 27.021 0 27 C0 18.09 0 9.18 0 0 Z M7 6 C7 10.95 7 15.9 7 21 C14.059 21.353 14.059 21.353 17.5 20.062 C19.621 17.146 19.439 14.688 19.434 11.156 C18.893 8.467 18.244 7.564 16 6 C13.738 5.707 13.738 5.707 11.312 5.812 C9.889 5.874 8.466 5.936 7 6 Z " fill="#ffffff" transform="translate(178,301)"/>
<path d="M0 0 C2.31 0 4.62 0 7 0 C7.981 2.103 8.96 4.208 9.938 6.312 C10.483 7.484 11.028 8.656 11.59 9.863 C13 13 13 13 14 16 C16.72 10.748 19.011 5.569 21 0 C23.31 0 25.62 0 28 0 C27.373 3.664 26.358 6.871 24.934 10.301 C24.531 11.277 24.128 12.254 23.713 13.26 C23.292 14.267 22.871 15.275 22.438 16.312 C22.013 17.339 21.588 18.366 21.15 19.424 C20.104 21.951 19.054 24.476 18 27 C15.69 27 13.38 27 11 27 C0 3.564 0 3.564 0 0 Z " fill="#ffffff" transform="translate(204,301)"/>
<path d="M0 0 C1.98 0 3.96 0 6 0 C6 8.91 6 17.82 6 27 C4.02 27 2.04 27 0 27 C-0.915 23.88 -1.129 21.079 -1.133 17.832 C-1.134 16.857 -1.135 15.882 -1.137 14.877 C-1.133 13.866 -1.129 12.854 -1.125 11.812 C-1.129 10.79 -1.133 9.767 -1.137 8.713 C-1.135 7.742 -1.134 6.77 -1.133 5.77 C-1.132 4.879 -1.131 3.988 -1.129 3.07 C-1 1 -1 1 0 0 Z " fill="#ffffff" transform="translate(235,301)"/>
<path d="M0 0 C2.34 1.023 2.34 1.023 4 2 C3.34 3.65 2.68 5.3 2 7 C-1.96 6.67 -5.92 6.34 -10 6 C-9.67 6.99 -9.34 7.98 -9 9 C-6.855 9.809 -6.855 9.809 -4.188 10.438 C2.706 12.351 2.706 12.351 5 16 C5.562 18.938 5.562 18.938 5 22 C2.45 25.102 0.823 26.726 -3 28 C-8.833 28.457 -12.716 27.225 -18 25 C-17.34 23.02 -16.68 21.04 -16 19 C-14.989 19.33 -13.979 19.66 -12.938 20 C-9.245 21.07 -5.848 21.157 -2 21 C-2.33 20.01 -2.66 19.02 -3 18 C-5.145 17.191 -5.145 17.191 -7.812 16.562 C-14.912 14.579 -14.912 14.579 -17 11 C-17.073 6.93 -16.615 4.8 -14.125 1.562 C-9.525 -0.738 -5.057 -0.648 0 0 Z " fill="#ffffff" transform="translate(262,301)"/>
<path d="M0 0 C3.819 1.773 5.494 3.299 7.938 6.688 C9.359 11.118 9.398 14.551 8 19 C5.82 22.631 3.23 25.202 -0.312 27.5 C-4.971 28.367 -9.637 28.342 -13.844 25.953 C-17.394 23.134 -19.633 20.346 -20.336 15.852 C-20.432 10.397 -19.744 7.25 -16 3 C-11.492 -1.098 -5.754 -0.752 0 0 Z M-11.438 7.562 C-13.589 10.919 -13.489 13.084 -13 17 C-12 19.438 -12 19.438 -10 21 C-6.824 21.454 -5.012 21.689 -2 21 C0.562 18.938 0.562 18.938 2 16 C1.94 12.507 1.637 10.096 -0.125 7.062 C-4.017 4.857 -7.749 5.198 -11.438 7.562 Z " fill="#ffffff" transform="translate(289,301)"/>
<path d="M0 0 C1.314 -0.037 2.627 -0.075 3.98 -0.113 C8.349 0.372 10.44 1.554 13.812 4.312 C15.376 7.44 15.212 10.892 14.812 14.312 C14.483 14.808 14.483 14.808 12.812 17.312 C12.152 17.312 11.493 17.312 10.812 17.312 C11.173 17.867 11.534 18.421 11.906 18.992 C12.37 19.717 12.834 20.441 13.312 21.188 C13.545 21.547 13.545 21.547 14.719 23.367 C15.812 25.312 15.812 25.312 15.812 27.312 C12.625 27.75 12.625 27.75 8.812 27.312 C7.27 25.637 6.192 23.882 5.012 21.938 C3.812 20.312 3.812 20.312 1 19.375 C0.278 19.354 -0.444 19.334 -1.188 19.312 C-1.188 21.952 -1.188 24.592 -1.188 27.312 C-3.498 27.312 -5.808 27.312 -8.188 27.312 C-8.216 23 -8.234 18.688 -8.25 14.375 C-8.258 13.143 -8.267 11.912 -8.275 10.643 C-8.279 9.473 -8.282 8.303 -8.285 7.098 C-8.29 6.014 -8.296 4.93 -8.301 3.813 C-8.071 -1.244 -4.091 0.058 0 0 Z M-1.188 6.312 C-1.188 8.952 -1.188 11.592 -1.188 14.312 C0.298 14.147 0.298 14.147 7.812 13.312 C8.142 11.993 8.473 10.673 8.812 9.312 C8.152 8.322 7.493 7.332 6.812 6.312 C4.867 6.02 4.867 6.02 2.688 6.125 C1.409 6.187 0.13 6.249 -1.188 6.312 Z " fill="#ffffff" transform="translate(309.1875,300.6875)"/>
<path d="M0 0 C2.31 0 4.62 0 7 0 C7.349 0.638 7.699 1.276 8.059 1.934 C8.514 2.76 8.969 3.586 9.438 4.438 C9.89 5.261 10.342 6.085 10.809 6.934 C12 9 12 9 13 10 C13.364 9.278 13.727 8.556 14.102 7.812 C15.6 5.046 17.065 2.484 19 0 C22.375 -0.625 22.375 -0.625 25 0 C24.434 4.315 22.86 7.065 20.5 10.688 C17.167 16.188 15.901 20.597 16 27 C14 27.043 12 27.041 10 27 C9 26 9 26 8.938 22.312 C8.429 16.669 5.723 12.498 2.795 7.786 C0 3.264 0 3.264 0 0 Z " fill="#ffffff" transform="translate(325,301)"/>
</svg>
