<?xml version="1.0" encoding="UTF-8"?>
<!-- Generator: visioncortex VTracer 0.6.12 -->
<svg version="1.1" xmlns="http://www.w3.org/2000/svg" viewBox="0 0 256 171" width="256" height="171">
<path d="M0,0 L12,0 L12,29 L16,30 L16,0 L256,0 L256,171 L176,171 L176,152 L173,152 L173,150 L176,150 L177,139 L171,139 L167,140 L161,139 L159,140 L153,140 L153,154 L156,155 L156,165 L152,165 L152,169 L156,169 L156,171 L141,171 L141,162 L137,162 L137,171 L24,171 L24,168 L20,168 L20,171 L17,171 L16,167 L16,152 L15,142 L16,131 L16,75 L12,75 L12,171 L0,171 Z M126,19 L125,21 L126,23 L122,24 L121,27 L119,27 L118,25 L115,23 L113,29 L115,29 L113,34 L114,35 L111,36 L110,38 L108,37 L106,41 L104,40 L102,45 L100,44 L97,49 L96,89 L100,93 L101,92 L104,96 L105,95 L107,99 L109,99 L111,102 L112,100 L114,105 L119,103 L119,109 L121,108 L123,111 L125,111 L130,112 L132,113 L134,111 L135,109 L138,109 L138,103 L145,104 L146,102 L149,101 L150,98 L153,97 L154,95 L156,95 L156,102 L160,102 L161,92 L162,89 L163,86 L161,86 L162,50 L163,47 L160,44 L156,44 L155,42 L153,41 L150,38 L148,39 L147,35 L144,35 L145,31 L145,28 L146,27 L146,22 L141,22 L138,25 L137,29 L134,28 L133,26 L135,26 L134,24 L133,20 Z M24,21 L24,25 L28,25 L28,21 Z M123,22 Z M117,23 Z M139,23 Z M137,24 Z M156,25 L156,39 L160,39 L160,25 Z M12,31 L12,36 L16,36 L16,31 Z M109,36 Z M164,36 L164,43 L168,43 L168,36 Z M149,37 Z M12,39 L11,67 L12,74 L16,74 L16,70 L20,70 L20,66 L16,66 L17,40 Z M105,39 Z M174,41 L172,42 L172,45 L176,45 L176,41 Z M101,42 Z M172,46 L172,55 L176,55 L176,46 Z M95,47 Z M164,51 L164,63 L168,63 L168,51 Z M162,53 L162,84 L163,84 L163,53 Z M81,57 L81,71 L85,71 L85,57 Z M172,57 L172,72 L176,72 L176,57 Z M25,61 L25,65 L29,65 L29,61 Z M180,66 L180,72 L184,72 L184,66 Z M164,69 L164,73 L168,73 L168,69 Z M176,73 L176,77 L180,77 L180,73 Z M164,76 L164,80 L168,80 L168,76 Z M172,78 L172,83 L176,83 L176,78 Z M249,80 L249,84 L253,84 L253,80 Z M94,84 L95,88 Z M172,84 L172,107 L176,107 L176,84 Z M164,90 L164,97 L168,97 L168,90 Z M154,96 Z M164,99 L164,103 L161,103 L161,107 L165,107 L165,104 L168,104 L168,99 Z M156,103 L156,117 L140,117 L136,118 L134,117 L106,117 L105,119 L102,119 L102,117 L94,117 L92,117 L85,117 L85,109 L81,109 L80,117 L77,118 L77,117 L67,117 L65,120 L66,121 L64,122 L64,127 L65,128 L65,134 L66,137 L75,136 L78,136 L81,134 L81,150 L80,155 L81,162 L85,162 L85,155 L87,154 L90,155 L104,156 L109,153 L110,148 L111,151 L110,154 L111,155 L119,155 L121,146 L121,140 L115,139 L114,141 L111,139 L102,138 L102,140 L94,140 L93,141 L91,138 L84,141 L86,136 L95,136 L97,131 L97,128 L100,134 L99,137 L107,137 L109,132 L110,137 L134,137 L160,138 L165,137 L183,137 L183,134 L187,134 L186,137 L193,137 L193,135 L191,135 L192,120 L193,117 L186,117 L185,118 L184,104 L180,104 L180,117 L176,117 L176,115 L172,115 L172,117 L168,117 L168,111 L164,111 L164,118 L161,117 L160,103 Z M117,104 Z M120,109 Z M123,111 Z M125,112 Z M20,118 L20,122 L24,122 L24,118 Z M201,118 L201,122 L205,122 L205,118 Z M196,129 L196,136 L200,136 L200,129 Z M98,133 L99,135 Z M64,135 Z M80,135 Z M184,135 Z M108,138 Z M130,138 L127,139 L125,143 L125,140 L122,140 L122,154 L120,155 L127,155 L134,153 L135,155 L138,154 L142,155 L146,154 L151,153 L152,151 L152,142 L151,140 L153,140 L153,138 Z M113,139 Z M121,139 Z M180,140 L180,144 L184,144 L184,140 Z M180,146 L180,150 L184,150 L184,146 Z M180,154 L180,158 L184,158 L184,154 Z M180,159 L180,162 L184,162 L184,159 Z M249,166 L249,170 L253,170 L253,166 Z " fill="#ffffff" transform="translate(0,0)"/>
<path d="M0,0 L2,0 L2,4 L5,4 L4,8 L4,11 L2,10 L3,13 L1,17 L0,12 Z " fill="#ffffff" transform="translate(115,36)"/>
<path d="M0,0 L10,0 L10,5 L4,7 L2,2 L0,2 Z " fill="#ffffff" transform="translate(134,40)"/>
<path d="M0,0 L2,2 L2,34 L0,34 L-1,37 L-4,36 L-6,40 L-7,39 L-9,43 L-11,43 L-11,33 L-16,34 L-16,26 L-14,26 L-13,24 L-11,27 L-10,22 L-8,20 L-7,21 L-4,17 L-2,18 L-1,16 Z M-4,19 Z M-9,23 Z M-2,33 Z " fill="#ffffff" transform="translate(152,51)"/>
<path d="M0,0 L6,1 L6,6 L4,7 L2,3 L0,4 L-1,1 Z " fill="#ffffff" transform="translate(117,61)"/>
<path d="M0,0 L5,0 L4,5 L2,4 L0,6 Z " fill="#ffffff" transform="translate(134,62)"/>
<path d="M0,0 L2,1 L3,4 L6,4 L8,6 L11,9 L14,16 L13,29 L10,29 L7,25 L5,26 L3,22 L1,22 L0,20 L0,3 Z M4,6 Z M8,9 Z M9,10 Z M9,25 Z " fill="#ffffff" transform="translate(106,65)"/>
<path d="M0,0 L1,0 L1,16 L-1,15 L-1,4 Z " fill="#ffffff" transform="translate(140,120)"/>
<path d="M0,0 L3,1 L4,7 L-1,5 Z " fill="#ffffff" transform="translate(86,123)"/>
<path d="M0,0 L3,0 L4,3 L0,6 Z " fill="#ffffff" transform="translate(99,143)"/>
<path d="M0,0 L4,0 L4,3 L8,3 L8,0 L12,0 L12,4 L8,4 L8,7 L4,7 L4,16 L0,16 Z " fill="#ffffff" transform="translate(160,155)"/>
<path d="M0,0 L4,0 L4,8 L0,8 Z " fill="#ffffff" transform="translate(168,163)"/>
</svg>
